<?xml version="1.0" encoding="UTF-8"?>
<svg id="Calque_1" data-name="Calque 1" xmlns="http://www.w3.org/2000/svg" xmlns:xlink="http://www.w3.org/1999/xlink" viewBox="0 0 463.92 533.33">
  <defs>
    <style>
      .cls-1 {
        fill: url(#Dégradé_sans_nom);
        fill-rule: evenodd;
      }
    </style>
    <radialGradient id="Dégradé_sans_nom" data-name="Dégradé sans nom" cx="231.96" cy="-.09" fx="231.96" fy="-.09" r="555.74" gradientUnits="userSpaceOnUse">
      <stop offset="0" stop-color="#ff7854"/>
      <stop offset="1" stop-color="#fd267d"/>
    </radialGradient>
  </defs>
  <path class="cls-1" d="m463.92,307.68c0,119.54-94.49,225.65-231.96,225.65C85.23,533.33,0,430.38,0,307.66c0-71.43,51.66-145.41,107.34-176.69.89-.5,1.86-.65,2.76-.52-4.71,26.17-10.03,55.97-11.14,62.37-1.3,7.53-2.23,15.11-3.39,22.65-1.1,7.18-2.26,14.36-3.45,21.52-1.27,7.59-2.76,15.15-3.85,22.75-.96,6.62-4.2,12.31-8.18,17.79-6.27,8.61-11.49,17.59-13.1,27.93-1.65,10.6.96,20.35,6.64,29.68,4.46,7.33,10.84,13.08,17.89,18.45,5.73,4.37,12.06,7.93,18.63,11.08,7.3,3.5,15.24,5.52,23.6,6.4,8.5.89,17.14.78,25.5,2.75,4.54,1.06,8.97,2.3,13.07,4.4,6.63,3.4,13.42,6.59,19.93,10.17,7.52,4.15,14.81,8.64,22.2,12.97,9.46,5.54,19.45,9.88,31.03,10.6,3.41.22,6.81.63,10.22.65,17.66.07,35.31.16,52.97-.02,7.22-.07,14.24-1.42,20.88-4.2,14.74-6.18,24.69-16.18,30.66-29.41,1.95-4.31,2.77-8.88,2.93-13.5.12-3.64.11-7.31-.22-10.94-.5-5.47-3.04-10.42-5.72-15.29-3-5.43-6.8-10.31-11.9-14.42-3.75-3.03-7.95-5.41-12.29-7.7-9.08-4.8-19.04-6.18-29.38-6.25-4.62-.03-9.25-.09-13.87.04-3.6.11-6.62-.87-9.51-2.74-9.54-6.16-19.18-12.2-28.78-18.29-11.6-7.35-23.16-14.74-34.81-22.01-2.45-1.53-3.28-3.08-2.75-5.82,2.57-13.46,4.76-26.97,7.3-40.44,1.3-6.87,3.18-13.66,4.58-20.53,1.73-8.48,3.2-17,4.82-25.5.54-2.83,6.44-35.72,10.69-59.33,11.56-35.04,11.95-74.37,6.2-112.2-.09-.69.02-1.39.31-2.01.84-1.79,2.98-2.55,4.76-1.71,99.57,46.98,211.35,150.91,211.35,307.34Z"/>
</svg>